<svg width="12" height="7" viewBox="0 0 12 7" fill="none" xmlns="http://www.w3.org/2000/svg">
<path d="M2.91202 0.816051C1.3062 0.816051 0.0284979 2.09375 0.0284979 3.66477C0.0284979 5.25568 1.3062 6.52344 2.91202 6.52344C4.04554 6.52344 4.89569 5.96165 5.46245 5.42472C5.67623 5.21094 5.84029 5.01705 6.00435 4.82315C6.14853 5.01207 6.31259 5.20597 6.53134 5.42472C7.10804 5.96662 7.95819 6.52344 9.09668 6.52344C10.6876 6.52344 11.9703 5.25568 11.9703 3.66477C11.9703 2.09375 10.6876 0.816051 9.09668 0.816051C7.96316 0.816051 7.10804 1.37784 6.52637 1.9446C6.2927 2.16335 6.14853 2.33736 6.00435 2.52628C5.84526 2.33736 5.67623 2.14347 5.46742 1.9446C4.89071 1.38281 4.04554 0.816051 2.91202 0.816051ZM1.40066 3.66477C1.40066 2.85938 2.07679 2.18821 2.91202 2.18821C3.53844 2.18821 4.08034 2.51634 4.50293 2.93395C4.76145 3.17756 4.9802 3.45597 5.13929 3.66477C4.98517 3.88849 4.78631 4.14205 4.50293 4.41548C4.05051 4.84304 3.53844 5.15128 2.91202 5.15128C2.07679 5.15128 1.40066 4.49006 1.40066 3.66477ZM10.5882 3.66477C10.5882 4.49006 9.92196 5.15128 9.09668 5.15128C8.45534 5.15128 7.9383 4.83807 7.49086 4.41548C7.21742 4.14702 7.01855 3.89844 6.85449 3.66477C6.95392 3.54545 7.19256 3.21733 7.49086 2.93395C7.90847 2.52131 8.45534 2.18821 9.09668 2.18821C9.92196 2.18821 10.5882 2.85938 10.5882 3.66477Z" fill="#B3B7C7"/>
</svg>
